<svg width="18" height="18" viewBox="0 0 18 18" fill="none" xmlns="http://www.w3.org/2000/svg"><g clip-path="url(#a)" fill="#E9EBF9"><path d="M2.775 1.321l1.794 5.007H0L2.775 1.32zm5.52.046L5.473 5.45 3.803.795h4.1l.392.572zm3.442 4.961H6.263L9 2.382l2.737 3.946zM14.198.795L12.534 5.45 9.705 1.367l.392-.572h4.1zM18 6.328h-4.56l1.793-5.007 2.768 5.007zM8.485 17.295l-.138-.168-8.18-9.654h4.808l3.41 9.54.1.282zm3.321-9.822L9.001 15.31 6.195 7.473h5.611zm6.025 0l-8.18 9.654-.137.16.091-.267 3.42-9.547h4.806z"/></g><defs><clipPath id="a"><path fill="#fff" d="M0 0h18v18H0z"/></clipPath></defs></svg>